<svg width="1298.8809460246184" height="1367.267772334671" xmlns="http://www.w3.org/2000/svg">
<rect width="100%" height="100%" fill="white"/>
<line x1="0" y1="0" x2="0" y2="1367.267772334671" stroke="lightgray" stroke-width="0.5"/>
<line x1="5" y1="0" x2="5" y2="1367.267772334671" stroke="lightgray" stroke-width="0.5"/>
<line x1="10" y1="0" x2="10" y2="1367.267772334671" stroke="lightgray" stroke-width="0.5"/>
<line x1="15" y1="0" x2="15" y2="1367.267772334671" stroke="lightgray" stroke-width="0.5"/>
<line x1="20" y1="0" x2="20" y2="1367.267772334671" stroke="lightgray" stroke-width="0.5"/>
<line x1="25" y1="0" x2="25" y2="1367.267772334671" stroke="lightgray" stroke-width="0.5"/>
<line x1="30" y1="0" x2="30" y2="1367.267772334671" stroke="lightgray" stroke-width="0.5"/>
<line x1="35" y1="0" x2="35" y2="1367.267772334671" stroke="lightgray" stroke-width="0.5"/>
<line x1="40" y1="0" x2="40" y2="1367.267772334671" stroke="lightgray" stroke-width="0.5"/>
<line x1="45" y1="0" x2="45" y2="1367.267772334671" stroke="lightgray" stroke-width="0.5"/>
<line x1="50" y1="0" x2="50" y2="1367.267772334671" stroke="lightgray" stroke-width="0.5"/>
<line x1="55" y1="0" x2="55" y2="1367.267772334671" stroke="lightgray" stroke-width="0.5"/>
<line x1="60" y1="0" x2="60" y2="1367.267772334671" stroke="lightgray" stroke-width="0.5"/>
<line x1="65" y1="0" x2="65" y2="1367.267772334671" stroke="lightgray" stroke-width="0.5"/>
<line x1="70" y1="0" x2="70" y2="1367.267772334671" stroke="lightgray" stroke-width="0.5"/>
<line x1="75" y1="0" x2="75" y2="1367.267772334671" stroke="lightgray" stroke-width="0.5"/>
<line x1="80" y1="0" x2="80" y2="1367.267772334671" stroke="lightgray" stroke-width="0.5"/>
<line x1="85" y1="0" x2="85" y2="1367.267772334671" stroke="lightgray" stroke-width="0.5"/>
<line x1="90" y1="0" x2="90" y2="1367.267772334671" stroke="lightgray" stroke-width="0.5"/>
<line x1="95" y1="0" x2="95" y2="1367.267772334671" stroke="lightgray" stroke-width="0.5"/>
<line x1="100" y1="0" x2="100" y2="1367.267772334671" stroke="lightgray" stroke-width="0.5"/>
<line x1="105" y1="0" x2="105" y2="1367.267772334671" stroke="lightgray" stroke-width="0.5"/>
<line x1="110" y1="0" x2="110" y2="1367.267772334671" stroke="lightgray" stroke-width="0.5"/>
<line x1="115" y1="0" x2="115" y2="1367.267772334671" stroke="lightgray" stroke-width="0.5"/>
<line x1="120" y1="0" x2="120" y2="1367.267772334671" stroke="lightgray" stroke-width="0.5"/>
<line x1="125" y1="0" x2="125" y2="1367.267772334671" stroke="lightgray" stroke-width="0.5"/>
<line x1="130" y1="0" x2="130" y2="1367.267772334671" stroke="lightgray" stroke-width="0.5"/>
<line x1="135" y1="0" x2="135" y2="1367.267772334671" stroke="lightgray" stroke-width="0.5"/>
<line x1="140" y1="0" x2="140" y2="1367.267772334671" stroke="lightgray" stroke-width="0.5"/>
<line x1="145" y1="0" x2="145" y2="1367.267772334671" stroke="lightgray" stroke-width="0.5"/>
<line x1="150" y1="0" x2="150" y2="1367.267772334671" stroke="lightgray" stroke-width="0.5"/>
<line x1="155" y1="0" x2="155" y2="1367.267772334671" stroke="lightgray" stroke-width="0.5"/>
<line x1="160" y1="0" x2="160" y2="1367.267772334671" stroke="lightgray" stroke-width="0.5"/>
<line x1="165" y1="0" x2="165" y2="1367.267772334671" stroke="lightgray" stroke-width="0.5"/>
<line x1="170" y1="0" x2="170" y2="1367.267772334671" stroke="lightgray" stroke-width="0.5"/>
<line x1="175" y1="0" x2="175" y2="1367.267772334671" stroke="lightgray" stroke-width="0.5"/>
<line x1="180" y1="0" x2="180" y2="1367.267772334671" stroke="lightgray" stroke-width="0.5"/>
<line x1="185" y1="0" x2="185" y2="1367.267772334671" stroke="lightgray" stroke-width="0.5"/>
<line x1="190" y1="0" x2="190" y2="1367.267772334671" stroke="lightgray" stroke-width="0.5"/>
<line x1="195" y1="0" x2="195" y2="1367.267772334671" stroke="lightgray" stroke-width="0.5"/>
<line x1="200" y1="0" x2="200" y2="1367.267772334671" stroke="lightgray" stroke-width="0.5"/>
<line x1="205" y1="0" x2="205" y2="1367.267772334671" stroke="lightgray" stroke-width="0.5"/>
<line x1="210" y1="0" x2="210" y2="1367.267772334671" stroke="lightgray" stroke-width="0.5"/>
<line x1="215" y1="0" x2="215" y2="1367.267772334671" stroke="lightgray" stroke-width="0.5"/>
<line x1="220" y1="0" x2="220" y2="1367.267772334671" stroke="lightgray" stroke-width="0.5"/>
<line x1="225" y1="0" x2="225" y2="1367.267772334671" stroke="lightgray" stroke-width="0.5"/>
<line x1="230" y1="0" x2="230" y2="1367.267772334671" stroke="lightgray" stroke-width="0.5"/>
<line x1="235" y1="0" x2="235" y2="1367.267772334671" stroke="lightgray" stroke-width="0.5"/>
<line x1="240" y1="0" x2="240" y2="1367.267772334671" stroke="lightgray" stroke-width="0.5"/>
<line x1="245" y1="0" x2="245" y2="1367.267772334671" stroke="lightgray" stroke-width="0.5"/>
<line x1="250" y1="0" x2="250" y2="1367.267772334671" stroke="lightgray" stroke-width="0.5"/>
<line x1="255" y1="0" x2="255" y2="1367.267772334671" stroke="lightgray" stroke-width="0.5"/>
<line x1="260" y1="0" x2="260" y2="1367.267772334671" stroke="lightgray" stroke-width="0.5"/>
<line x1="265" y1="0" x2="265" y2="1367.267772334671" stroke="lightgray" stroke-width="0.5"/>
<line x1="270" y1="0" x2="270" y2="1367.267772334671" stroke="lightgray" stroke-width="0.5"/>
<line x1="275" y1="0" x2="275" y2="1367.267772334671" stroke="lightgray" stroke-width="0.5"/>
<line x1="280" y1="0" x2="280" y2="1367.267772334671" stroke="lightgray" stroke-width="0.5"/>
<line x1="285" y1="0" x2="285" y2="1367.267772334671" stroke="lightgray" stroke-width="0.5"/>
<line x1="290" y1="0" x2="290" y2="1367.267772334671" stroke="lightgray" stroke-width="0.5"/>
<line x1="295" y1="0" x2="295" y2="1367.267772334671" stroke="lightgray" stroke-width="0.5"/>
<line x1="300" y1="0" x2="300" y2="1367.267772334671" stroke="lightgray" stroke-width="0.5"/>
<line x1="305" y1="0" x2="305" y2="1367.267772334671" stroke="lightgray" stroke-width="0.5"/>
<line x1="310" y1="0" x2="310" y2="1367.267772334671" stroke="lightgray" stroke-width="0.5"/>
<line x1="315" y1="0" x2="315" y2="1367.267772334671" stroke="lightgray" stroke-width="0.5"/>
<line x1="320" y1="0" x2="320" y2="1367.267772334671" stroke="lightgray" stroke-width="0.5"/>
<line x1="325" y1="0" x2="325" y2="1367.267772334671" stroke="lightgray" stroke-width="0.5"/>
<line x1="330" y1="0" x2="330" y2="1367.267772334671" stroke="lightgray" stroke-width="0.5"/>
<line x1="335" y1="0" x2="335" y2="1367.267772334671" stroke="lightgray" stroke-width="0.5"/>
<line x1="340" y1="0" x2="340" y2="1367.267772334671" stroke="lightgray" stroke-width="0.5"/>
<line x1="345" y1="0" x2="345" y2="1367.267772334671" stroke="lightgray" stroke-width="0.5"/>
<line x1="350" y1="0" x2="350" y2="1367.267772334671" stroke="lightgray" stroke-width="0.5"/>
<line x1="355" y1="0" x2="355" y2="1367.267772334671" stroke="lightgray" stroke-width="0.5"/>
<line x1="360" y1="0" x2="360" y2="1367.267772334671" stroke="lightgray" stroke-width="0.5"/>
<line x1="365" y1="0" x2="365" y2="1367.267772334671" stroke="lightgray" stroke-width="0.5"/>
<line x1="370" y1="0" x2="370" y2="1367.267772334671" stroke="lightgray" stroke-width="0.5"/>
<line x1="375" y1="0" x2="375" y2="1367.267772334671" stroke="lightgray" stroke-width="0.5"/>
<line x1="380" y1="0" x2="380" y2="1367.267772334671" stroke="lightgray" stroke-width="0.5"/>
<line x1="385" y1="0" x2="385" y2="1367.267772334671" stroke="lightgray" stroke-width="0.5"/>
<line x1="390" y1="0" x2="390" y2="1367.267772334671" stroke="lightgray" stroke-width="0.5"/>
<line x1="395" y1="0" x2="395" y2="1367.267772334671" stroke="lightgray" stroke-width="0.5"/>
<line x1="400" y1="0" x2="400" y2="1367.267772334671" stroke="lightgray" stroke-width="0.5"/>
<line x1="405" y1="0" x2="405" y2="1367.267772334671" stroke="lightgray" stroke-width="0.5"/>
<line x1="410" y1="0" x2="410" y2="1367.267772334671" stroke="lightgray" stroke-width="0.5"/>
<line x1="415" y1="0" x2="415" y2="1367.267772334671" stroke="lightgray" stroke-width="0.5"/>
<line x1="420" y1="0" x2="420" y2="1367.267772334671" stroke="lightgray" stroke-width="0.5"/>
<line x1="425" y1="0" x2="425" y2="1367.267772334671" stroke="lightgray" stroke-width="0.5"/>
<line x1="430" y1="0" x2="430" y2="1367.267772334671" stroke="lightgray" stroke-width="0.5"/>
<line x1="435" y1="0" x2="435" y2="1367.267772334671" stroke="lightgray" stroke-width="0.5"/>
<line x1="440" y1="0" x2="440" y2="1367.267772334671" stroke="lightgray" stroke-width="0.5"/>
<line x1="445" y1="0" x2="445" y2="1367.267772334671" stroke="lightgray" stroke-width="0.5"/>
<line x1="450" y1="0" x2="450" y2="1367.267772334671" stroke="lightgray" stroke-width="0.5"/>
<line x1="455" y1="0" x2="455" y2="1367.267772334671" stroke="lightgray" stroke-width="0.5"/>
<line x1="460" y1="0" x2="460" y2="1367.267772334671" stroke="lightgray" stroke-width="0.5"/>
<line x1="465" y1="0" x2="465" y2="1367.267772334671" stroke="lightgray" stroke-width="0.5"/>
<line x1="470" y1="0" x2="470" y2="1367.267772334671" stroke="lightgray" stroke-width="0.5"/>
<line x1="475" y1="0" x2="475" y2="1367.267772334671" stroke="lightgray" stroke-width="0.5"/>
<line x1="480" y1="0" x2="480" y2="1367.267772334671" stroke="lightgray" stroke-width="0.5"/>
<line x1="485" y1="0" x2="485" y2="1367.267772334671" stroke="lightgray" stroke-width="0.5"/>
<line x1="490" y1="0" x2="490" y2="1367.267772334671" stroke="lightgray" stroke-width="0.5"/>
<line x1="495" y1="0" x2="495" y2="1367.267772334671" stroke="lightgray" stroke-width="0.5"/>
<line x1="500" y1="0" x2="500" y2="1367.267772334671" stroke="lightgray" stroke-width="0.5"/>
<line x1="505" y1="0" x2="505" y2="1367.267772334671" stroke="lightgray" stroke-width="0.5"/>
<line x1="510" y1="0" x2="510" y2="1367.267772334671" stroke="lightgray" stroke-width="0.5"/>
<line x1="515" y1="0" x2="515" y2="1367.267772334671" stroke="lightgray" stroke-width="0.5"/>
<line x1="520" y1="0" x2="520" y2="1367.267772334671" stroke="lightgray" stroke-width="0.5"/>
<line x1="525" y1="0" x2="525" y2="1367.267772334671" stroke="lightgray" stroke-width="0.5"/>
<line x1="530" y1="0" x2="530" y2="1367.267772334671" stroke="lightgray" stroke-width="0.5"/>
<line x1="535" y1="0" x2="535" y2="1367.267772334671" stroke="lightgray" stroke-width="0.5"/>
<line x1="540" y1="0" x2="540" y2="1367.267772334671" stroke="lightgray" stroke-width="0.5"/>
<line x1="545" y1="0" x2="545" y2="1367.267772334671" stroke="lightgray" stroke-width="0.5"/>
<line x1="550" y1="0" x2="550" y2="1367.267772334671" stroke="lightgray" stroke-width="0.5"/>
<line x1="555" y1="0" x2="555" y2="1367.267772334671" stroke="lightgray" stroke-width="0.5"/>
<line x1="560" y1="0" x2="560" y2="1367.267772334671" stroke="lightgray" stroke-width="0.5"/>
<line x1="565" y1="0" x2="565" y2="1367.267772334671" stroke="lightgray" stroke-width="0.5"/>
<line x1="570" y1="0" x2="570" y2="1367.267772334671" stroke="lightgray" stroke-width="0.5"/>
<line x1="575" y1="0" x2="575" y2="1367.267772334671" stroke="lightgray" stroke-width="0.5"/>
<line x1="580" y1="0" x2="580" y2="1367.267772334671" stroke="lightgray" stroke-width="0.5"/>
<line x1="585" y1="0" x2="585" y2="1367.267772334671" stroke="lightgray" stroke-width="0.5"/>
<line x1="590" y1="0" x2="590" y2="1367.267772334671" stroke="lightgray" stroke-width="0.5"/>
<line x1="595" y1="0" x2="595" y2="1367.267772334671" stroke="lightgray" stroke-width="0.5"/>
<line x1="600" y1="0" x2="600" y2="1367.267772334671" stroke="lightgray" stroke-width="0.5"/>
<line x1="605" y1="0" x2="605" y2="1367.267772334671" stroke="lightgray" stroke-width="0.5"/>
<line x1="610" y1="0" x2="610" y2="1367.267772334671" stroke="lightgray" stroke-width="0.5"/>
<line x1="615" y1="0" x2="615" y2="1367.267772334671" stroke="lightgray" stroke-width="0.5"/>
<line x1="620" y1="0" x2="620" y2="1367.267772334671" stroke="lightgray" stroke-width="0.5"/>
<line x1="625" y1="0" x2="625" y2="1367.267772334671" stroke="lightgray" stroke-width="0.5"/>
<line x1="630" y1="0" x2="630" y2="1367.267772334671" stroke="lightgray" stroke-width="0.5"/>
<line x1="635" y1="0" x2="635" y2="1367.267772334671" stroke="lightgray" stroke-width="0.5"/>
<line x1="640" y1="0" x2="640" y2="1367.267772334671" stroke="lightgray" stroke-width="0.5"/>
<line x1="645" y1="0" x2="645" y2="1367.267772334671" stroke="lightgray" stroke-width="0.5"/>
<line x1="650" y1="0" x2="650" y2="1367.267772334671" stroke="lightgray" stroke-width="0.5"/>
<line x1="655" y1="0" x2="655" y2="1367.267772334671" stroke="lightgray" stroke-width="0.5"/>
<line x1="660" y1="0" x2="660" y2="1367.267772334671" stroke="lightgray" stroke-width="0.5"/>
<line x1="665" y1="0" x2="665" y2="1367.267772334671" stroke="lightgray" stroke-width="0.5"/>
<line x1="670" y1="0" x2="670" y2="1367.267772334671" stroke="lightgray" stroke-width="0.5"/>
<line x1="675" y1="0" x2="675" y2="1367.267772334671" stroke="lightgray" stroke-width="0.5"/>
<line x1="680" y1="0" x2="680" y2="1367.267772334671" stroke="lightgray" stroke-width="0.5"/>
<line x1="685" y1="0" x2="685" y2="1367.267772334671" stroke="lightgray" stroke-width="0.5"/>
<line x1="690" y1="0" x2="690" y2="1367.267772334671" stroke="lightgray" stroke-width="0.5"/>
<line x1="695" y1="0" x2="695" y2="1367.267772334671" stroke="lightgray" stroke-width="0.5"/>
<line x1="700" y1="0" x2="700" y2="1367.267772334671" stroke="lightgray" stroke-width="0.5"/>
<line x1="705" y1="0" x2="705" y2="1367.267772334671" stroke="lightgray" stroke-width="0.5"/>
<line x1="710" y1="0" x2="710" y2="1367.267772334671" stroke="lightgray" stroke-width="0.5"/>
<line x1="715" y1="0" x2="715" y2="1367.267772334671" stroke="lightgray" stroke-width="0.5"/>
<line x1="720" y1="0" x2="720" y2="1367.267772334671" stroke="lightgray" stroke-width="0.5"/>
<line x1="725" y1="0" x2="725" y2="1367.267772334671" stroke="lightgray" stroke-width="0.5"/>
<line x1="730" y1="0" x2="730" y2="1367.267772334671" stroke="lightgray" stroke-width="0.5"/>
<line x1="735" y1="0" x2="735" y2="1367.267772334671" stroke="lightgray" stroke-width="0.5"/>
<line x1="740" y1="0" x2="740" y2="1367.267772334671" stroke="lightgray" stroke-width="0.5"/>
<line x1="745" y1="0" x2="745" y2="1367.267772334671" stroke="lightgray" stroke-width="0.5"/>
<line x1="750" y1="0" x2="750" y2="1367.267772334671" stroke="lightgray" stroke-width="0.5"/>
<line x1="755" y1="0" x2="755" y2="1367.267772334671" stroke="lightgray" stroke-width="0.5"/>
<line x1="760" y1="0" x2="760" y2="1367.267772334671" stroke="lightgray" stroke-width="0.5"/>
<line x1="765" y1="0" x2="765" y2="1367.267772334671" stroke="lightgray" stroke-width="0.5"/>
<line x1="770" y1="0" x2="770" y2="1367.267772334671" stroke="lightgray" stroke-width="0.5"/>
<line x1="775" y1="0" x2="775" y2="1367.267772334671" stroke="lightgray" stroke-width="0.5"/>
<line x1="780" y1="0" x2="780" y2="1367.267772334671" stroke="lightgray" stroke-width="0.5"/>
<line x1="785" y1="0" x2="785" y2="1367.267772334671" stroke="lightgray" stroke-width="0.5"/>
<line x1="790" y1="0" x2="790" y2="1367.267772334671" stroke="lightgray" stroke-width="0.5"/>
<line x1="795" y1="0" x2="795" y2="1367.267772334671" stroke="lightgray" stroke-width="0.5"/>
<line x1="800" y1="0" x2="800" y2="1367.267772334671" stroke="lightgray" stroke-width="0.5"/>
<line x1="805" y1="0" x2="805" y2="1367.267772334671" stroke="lightgray" stroke-width="0.5"/>
<line x1="810" y1="0" x2="810" y2="1367.267772334671" stroke="lightgray" stroke-width="0.5"/>
<line x1="815" y1="0" x2="815" y2="1367.267772334671" stroke="lightgray" stroke-width="0.5"/>
<line x1="820" y1="0" x2="820" y2="1367.267772334671" stroke="lightgray" stroke-width="0.5"/>
<line x1="825" y1="0" x2="825" y2="1367.267772334671" stroke="lightgray" stroke-width="0.5"/>
<line x1="830" y1="0" x2="830" y2="1367.267772334671" stroke="lightgray" stroke-width="0.5"/>
<line x1="835" y1="0" x2="835" y2="1367.267772334671" stroke="lightgray" stroke-width="0.5"/>
<line x1="840" y1="0" x2="840" y2="1367.267772334671" stroke="lightgray" stroke-width="0.5"/>
<line x1="845" y1="0" x2="845" y2="1367.267772334671" stroke="lightgray" stroke-width="0.5"/>
<line x1="850" y1="0" x2="850" y2="1367.267772334671" stroke="lightgray" stroke-width="0.5"/>
<line x1="855" y1="0" x2="855" y2="1367.267772334671" stroke="lightgray" stroke-width="0.5"/>
<line x1="860" y1="0" x2="860" y2="1367.267772334671" stroke="lightgray" stroke-width="0.5"/>
<line x1="865" y1="0" x2="865" y2="1367.267772334671" stroke="lightgray" stroke-width="0.5"/>
<line x1="870" y1="0" x2="870" y2="1367.267772334671" stroke="lightgray" stroke-width="0.5"/>
<line x1="875" y1="0" x2="875" y2="1367.267772334671" stroke="lightgray" stroke-width="0.5"/>
<line x1="880" y1="0" x2="880" y2="1367.267772334671" stroke="lightgray" stroke-width="0.5"/>
<line x1="885" y1="0" x2="885" y2="1367.267772334671" stroke="lightgray" stroke-width="0.5"/>
<line x1="890" y1="0" x2="890" y2="1367.267772334671" stroke="lightgray" stroke-width="0.5"/>
<line x1="895" y1="0" x2="895" y2="1367.267772334671" stroke="lightgray" stroke-width="0.5"/>
<line x1="900" y1="0" x2="900" y2="1367.267772334671" stroke="lightgray" stroke-width="0.5"/>
<line x1="905" y1="0" x2="905" y2="1367.267772334671" stroke="lightgray" stroke-width="0.5"/>
<line x1="910" y1="0" x2="910" y2="1367.267772334671" stroke="lightgray" stroke-width="0.5"/>
<line x1="915" y1="0" x2="915" y2="1367.267772334671" stroke="lightgray" stroke-width="0.5"/>
<line x1="920" y1="0" x2="920" y2="1367.267772334671" stroke="lightgray" stroke-width="0.5"/>
<line x1="925" y1="0" x2="925" y2="1367.267772334671" stroke="lightgray" stroke-width="0.5"/>
<line x1="930" y1="0" x2="930" y2="1367.267772334671" stroke="lightgray" stroke-width="0.5"/>
<line x1="935" y1="0" x2="935" y2="1367.267772334671" stroke="lightgray" stroke-width="0.5"/>
<line x1="940" y1="0" x2="940" y2="1367.267772334671" stroke="lightgray" stroke-width="0.5"/>
<line x1="945" y1="0" x2="945" y2="1367.267772334671" stroke="lightgray" stroke-width="0.5"/>
<line x1="950" y1="0" x2="950" y2="1367.267772334671" stroke="lightgray" stroke-width="0.5"/>
<line x1="955" y1="0" x2="955" y2="1367.267772334671" stroke="lightgray" stroke-width="0.5"/>
<line x1="960" y1="0" x2="960" y2="1367.267772334671" stroke="lightgray" stroke-width="0.5"/>
<line x1="965" y1="0" x2="965" y2="1367.267772334671" stroke="lightgray" stroke-width="0.5"/>
<line x1="970" y1="0" x2="970" y2="1367.267772334671" stroke="lightgray" stroke-width="0.5"/>
<line x1="975" y1="0" x2="975" y2="1367.267772334671" stroke="lightgray" stroke-width="0.5"/>
<line x1="980" y1="0" x2="980" y2="1367.267772334671" stroke="lightgray" stroke-width="0.5"/>
<line x1="985" y1="0" x2="985" y2="1367.267772334671" stroke="lightgray" stroke-width="0.5"/>
<line x1="990" y1="0" x2="990" y2="1367.267772334671" stroke="lightgray" stroke-width="0.5"/>
<line x1="995" y1="0" x2="995" y2="1367.267772334671" stroke="lightgray" stroke-width="0.5"/>
<line x1="1000" y1="0" x2="1000" y2="1367.267772334671" stroke="lightgray" stroke-width="0.5"/>
<line x1="1005" y1="0" x2="1005" y2="1367.267772334671" stroke="lightgray" stroke-width="0.5"/>
<line x1="1010" y1="0" x2="1010" y2="1367.267772334671" stroke="lightgray" stroke-width="0.5"/>
<line x1="1015" y1="0" x2="1015" y2="1367.267772334671" stroke="lightgray" stroke-width="0.5"/>
<line x1="1020" y1="0" x2="1020" y2="1367.267772334671" stroke="lightgray" stroke-width="0.5"/>
<line x1="1025" y1="0" x2="1025" y2="1367.267772334671" stroke="lightgray" stroke-width="0.5"/>
<line x1="1030" y1="0" x2="1030" y2="1367.267772334671" stroke="lightgray" stroke-width="0.5"/>
<line x1="1035" y1="0" x2="1035" y2="1367.267772334671" stroke="lightgray" stroke-width="0.5"/>
<line x1="1040" y1="0" x2="1040" y2="1367.267772334671" stroke="lightgray" stroke-width="0.5"/>
<line x1="1045" y1="0" x2="1045" y2="1367.267772334671" stroke="lightgray" stroke-width="0.5"/>
<line x1="1050" y1="0" x2="1050" y2="1367.267772334671" stroke="lightgray" stroke-width="0.5"/>
<line x1="1055" y1="0" x2="1055" y2="1367.267772334671" stroke="lightgray" stroke-width="0.5"/>
<line x1="1060" y1="0" x2="1060" y2="1367.267772334671" stroke="lightgray" stroke-width="0.5"/>
<line x1="1065" y1="0" x2="1065" y2="1367.267772334671" stroke="lightgray" stroke-width="0.5"/>
<line x1="1070" y1="0" x2="1070" y2="1367.267772334671" stroke="lightgray" stroke-width="0.5"/>
<line x1="1075" y1="0" x2="1075" y2="1367.267772334671" stroke="lightgray" stroke-width="0.5"/>
<line x1="1080" y1="0" x2="1080" y2="1367.267772334671" stroke="lightgray" stroke-width="0.5"/>
<line x1="1085" y1="0" x2="1085" y2="1367.267772334671" stroke="lightgray" stroke-width="0.5"/>
<line x1="1090" y1="0" x2="1090" y2="1367.267772334671" stroke="lightgray" stroke-width="0.5"/>
<line x1="1095" y1="0" x2="1095" y2="1367.267772334671" stroke="lightgray" stroke-width="0.5"/>
<line x1="1100" y1="0" x2="1100" y2="1367.267772334671" stroke="lightgray" stroke-width="0.5"/>
<line x1="1105" y1="0" x2="1105" y2="1367.267772334671" stroke="lightgray" stroke-width="0.5"/>
<line x1="1110" y1="0" x2="1110" y2="1367.267772334671" stroke="lightgray" stroke-width="0.5"/>
<line x1="1115" y1="0" x2="1115" y2="1367.267772334671" stroke="lightgray" stroke-width="0.5"/>
<line x1="1120" y1="0" x2="1120" y2="1367.267772334671" stroke="lightgray" stroke-width="0.5"/>
<line x1="1125" y1="0" x2="1125" y2="1367.267772334671" stroke="lightgray" stroke-width="0.5"/>
<line x1="1130" y1="0" x2="1130" y2="1367.267772334671" stroke="lightgray" stroke-width="0.5"/>
<line x1="1135" y1="0" x2="1135" y2="1367.267772334671" stroke="lightgray" stroke-width="0.5"/>
<line x1="1140" y1="0" x2="1140" y2="1367.267772334671" stroke="lightgray" stroke-width="0.5"/>
<line x1="1145" y1="0" x2="1145" y2="1367.267772334671" stroke="lightgray" stroke-width="0.5"/>
<line x1="1150" y1="0" x2="1150" y2="1367.267772334671" stroke="lightgray" stroke-width="0.5"/>
<line x1="1155" y1="0" x2="1155" y2="1367.267772334671" stroke="lightgray" stroke-width="0.5"/>
<line x1="1160" y1="0" x2="1160" y2="1367.267772334671" stroke="lightgray" stroke-width="0.5"/>
<line x1="1165" y1="0" x2="1165" y2="1367.267772334671" stroke="lightgray" stroke-width="0.5"/>
<line x1="1170" y1="0" x2="1170" y2="1367.267772334671" stroke="lightgray" stroke-width="0.5"/>
<line x1="1175" y1="0" x2="1175" y2="1367.267772334671" stroke="lightgray" stroke-width="0.5"/>
<line x1="1180" y1="0" x2="1180" y2="1367.267772334671" stroke="lightgray" stroke-width="0.5"/>
<line x1="1185" y1="0" x2="1185" y2="1367.267772334671" stroke="lightgray" stroke-width="0.5"/>
<line x1="1190" y1="0" x2="1190" y2="1367.267772334671" stroke="lightgray" stroke-width="0.5"/>
<line x1="1195" y1="0" x2="1195" y2="1367.267772334671" stroke="lightgray" stroke-width="0.5"/>
<line x1="1200" y1="0" x2="1200" y2="1367.267772334671" stroke="lightgray" stroke-width="0.5"/>
<line x1="1205" y1="0" x2="1205" y2="1367.267772334671" stroke="lightgray" stroke-width="0.5"/>
<line x1="1210" y1="0" x2="1210" y2="1367.267772334671" stroke="lightgray" stroke-width="0.5"/>
<line x1="1215" y1="0" x2="1215" y2="1367.267772334671" stroke="lightgray" stroke-width="0.5"/>
<line x1="1220" y1="0" x2="1220" y2="1367.267772334671" stroke="lightgray" stroke-width="0.5"/>
<line x1="1225" y1="0" x2="1225" y2="1367.267772334671" stroke="lightgray" stroke-width="0.5"/>
<line x1="1230" y1="0" x2="1230" y2="1367.267772334671" stroke="lightgray" stroke-width="0.5"/>
<line x1="1235" y1="0" x2="1235" y2="1367.267772334671" stroke="lightgray" stroke-width="0.5"/>
<line x1="1240" y1="0" x2="1240" y2="1367.267772334671" stroke="lightgray" stroke-width="0.5"/>
<line x1="1245" y1="0" x2="1245" y2="1367.267772334671" stroke="lightgray" stroke-width="0.5"/>
<line x1="1250" y1="0" x2="1250" y2="1367.267772334671" stroke="lightgray" stroke-width="0.5"/>
<line x1="1255" y1="0" x2="1255" y2="1367.267772334671" stroke="lightgray" stroke-width="0.5"/>
<line x1="1260" y1="0" x2="1260" y2="1367.267772334671" stroke="lightgray" stroke-width="0.5"/>
<line x1="1265" y1="0" x2="1265" y2="1367.267772334671" stroke="lightgray" stroke-width="0.5"/>
<line x1="1270" y1="0" x2="1270" y2="1367.267772334671" stroke="lightgray" stroke-width="0.5"/>
<line x1="1275" y1="0" x2="1275" y2="1367.267772334671" stroke="lightgray" stroke-width="0.5"/>
<line x1="1280" y1="0" x2="1280" y2="1367.267772334671" stroke="lightgray" stroke-width="0.5"/>
<line x1="1285" y1="0" x2="1285" y2="1367.267772334671" stroke="lightgray" stroke-width="0.5"/>
<line x1="1290" y1="0" x2="1290" y2="1367.267772334671" stroke="lightgray" stroke-width="0.5"/>
<line x1="1295" y1="0" x2="1295" y2="1367.267772334671" stroke="lightgray" stroke-width="0.5"/>
<line x1="1300" y1="0" x2="1300" y2="1367.267772334671" stroke="lightgray" stroke-width="0.5"/>
<line x1="0" y1="0" x2="1298.8809460246184" y2="0" stroke="lightgray" stroke-width="0.5"/>
<line x1="0" y1="5" x2="1298.8809460246184" y2="5" stroke="lightgray" stroke-width="0.5"/>
<line x1="0" y1="10" x2="1298.8809460246184" y2="10" stroke="lightgray" stroke-width="0.5"/>
<line x1="0" y1="15" x2="1298.8809460246184" y2="15" stroke="lightgray" stroke-width="0.5"/>
<line x1="0" y1="20" x2="1298.8809460246184" y2="20" stroke="lightgray" stroke-width="0.5"/>
<line x1="0" y1="25" x2="1298.8809460246184" y2="25" stroke="lightgray" stroke-width="0.5"/>
<line x1="0" y1="30" x2="1298.8809460246184" y2="30" stroke="lightgray" stroke-width="0.5"/>
<line x1="0" y1="35" x2="1298.8809460246184" y2="35" stroke="lightgray" stroke-width="0.5"/>
<line x1="0" y1="40" x2="1298.8809460246184" y2="40" stroke="lightgray" stroke-width="0.5"/>
<line x1="0" y1="45" x2="1298.8809460246184" y2="45" stroke="lightgray" stroke-width="0.5"/>
<line x1="0" y1="50" x2="1298.8809460246184" y2="50" stroke="lightgray" stroke-width="0.5"/>
<line x1="0" y1="55" x2="1298.8809460246184" y2="55" stroke="lightgray" stroke-width="0.5"/>
<line x1="0" y1="60" x2="1298.8809460246184" y2="60" stroke="lightgray" stroke-width="0.5"/>
<line x1="0" y1="65" x2="1298.8809460246184" y2="65" stroke="lightgray" stroke-width="0.5"/>
<line x1="0" y1="70" x2="1298.8809460246184" y2="70" stroke="lightgray" stroke-width="0.5"/>
<line x1="0" y1="75" x2="1298.8809460246184" y2="75" stroke="lightgray" stroke-width="0.5"/>
<line x1="0" y1="80" x2="1298.8809460246184" y2="80" stroke="lightgray" stroke-width="0.5"/>
<line x1="0" y1="85" x2="1298.8809460246184" y2="85" stroke="lightgray" stroke-width="0.5"/>
<line x1="0" y1="90" x2="1298.8809460246184" y2="90" stroke="lightgray" stroke-width="0.5"/>
<line x1="0" y1="95" x2="1298.8809460246184" y2="95" stroke="lightgray" stroke-width="0.5"/>
<line x1="0" y1="100" x2="1298.8809460246184" y2="100" stroke="lightgray" stroke-width="0.5"/>
<line x1="0" y1="105" x2="1298.8809460246184" y2="105" stroke="lightgray" stroke-width="0.5"/>
<line x1="0" y1="110" x2="1298.8809460246184" y2="110" stroke="lightgray" stroke-width="0.5"/>
<line x1="0" y1="115" x2="1298.8809460246184" y2="115" stroke="lightgray" stroke-width="0.5"/>
<line x1="0" y1="120" x2="1298.8809460246184" y2="120" stroke="lightgray" stroke-width="0.5"/>
<line x1="0" y1="125" x2="1298.8809460246184" y2="125" stroke="lightgray" stroke-width="0.5"/>
<line x1="0" y1="130" x2="1298.8809460246184" y2="130" stroke="lightgray" stroke-width="0.5"/>
<line x1="0" y1="135" x2="1298.8809460246184" y2="135" stroke="lightgray" stroke-width="0.5"/>
<line x1="0" y1="140" x2="1298.8809460246184" y2="140" stroke="lightgray" stroke-width="0.5"/>
<line x1="0" y1="145" x2="1298.8809460246184" y2="145" stroke="lightgray" stroke-width="0.5"/>
<line x1="0" y1="150" x2="1298.8809460246184" y2="150" stroke="lightgray" stroke-width="0.5"/>
<line x1="0" y1="155" x2="1298.8809460246184" y2="155" stroke="lightgray" stroke-width="0.5"/>
<line x1="0" y1="160" x2="1298.8809460246184" y2="160" stroke="lightgray" stroke-width="0.5"/>
<line x1="0" y1="165" x2="1298.8809460246184" y2="165" stroke="lightgray" stroke-width="0.5"/>
<line x1="0" y1="170" x2="1298.8809460246184" y2="170" stroke="lightgray" stroke-width="0.5"/>
<line x1="0" y1="175" x2="1298.8809460246184" y2="175" stroke="lightgray" stroke-width="0.5"/>
<line x1="0" y1="180" x2="1298.8809460246184" y2="180" stroke="lightgray" stroke-width="0.5"/>
<line x1="0" y1="185" x2="1298.8809460246184" y2="185" stroke="lightgray" stroke-width="0.5"/>
<line x1="0" y1="190" x2="1298.8809460246184" y2="190" stroke="lightgray" stroke-width="0.5"/>
<line x1="0" y1="195" x2="1298.8809460246184" y2="195" stroke="lightgray" stroke-width="0.5"/>
<line x1="0" y1="200" x2="1298.8809460246184" y2="200" stroke="lightgray" stroke-width="0.5"/>
<line x1="0" y1="205" x2="1298.8809460246184" y2="205" stroke="lightgray" stroke-width="0.5"/>
<line x1="0" y1="210" x2="1298.8809460246184" y2="210" stroke="lightgray" stroke-width="0.5"/>
<line x1="0" y1="215" x2="1298.8809460246184" y2="215" stroke="lightgray" stroke-width="0.5"/>
<line x1="0" y1="220" x2="1298.8809460246184" y2="220" stroke="lightgray" stroke-width="0.5"/>
<line x1="0" y1="225" x2="1298.8809460246184" y2="225" stroke="lightgray" stroke-width="0.5"/>
<line x1="0" y1="230" x2="1298.8809460246184" y2="230" stroke="lightgray" stroke-width="0.5"/>
<line x1="0" y1="235" x2="1298.8809460246184" y2="235" stroke="lightgray" stroke-width="0.5"/>
<line x1="0" y1="240" x2="1298.8809460246184" y2="240" stroke="lightgray" stroke-width="0.5"/>
<line x1="0" y1="245" x2="1298.8809460246184" y2="245" stroke="lightgray" stroke-width="0.5"/>
<line x1="0" y1="250" x2="1298.8809460246184" y2="250" stroke="lightgray" stroke-width="0.5"/>
<line x1="0" y1="255" x2="1298.8809460246184" y2="255" stroke="lightgray" stroke-width="0.5"/>
<line x1="0" y1="260" x2="1298.8809460246184" y2="260" stroke="lightgray" stroke-width="0.5"/>
<line x1="0" y1="265" x2="1298.8809460246184" y2="265" stroke="lightgray" stroke-width="0.5"/>
<line x1="0" y1="270" x2="1298.8809460246184" y2="270" stroke="lightgray" stroke-width="0.5"/>
<line x1="0" y1="275" x2="1298.8809460246184" y2="275" stroke="lightgray" stroke-width="0.5"/>
<line x1="0" y1="280" x2="1298.8809460246184" y2="280" stroke="lightgray" stroke-width="0.5"/>
<line x1="0" y1="285" x2="1298.8809460246184" y2="285" stroke="lightgray" stroke-width="0.5"/>
<line x1="0" y1="290" x2="1298.8809460246184" y2="290" stroke="lightgray" stroke-width="0.5"/>
<line x1="0" y1="295" x2="1298.8809460246184" y2="295" stroke="lightgray" stroke-width="0.5"/>
<line x1="0" y1="300" x2="1298.8809460246184" y2="300" stroke="lightgray" stroke-width="0.5"/>
<line x1="0" y1="305" x2="1298.8809460246184" y2="305" stroke="lightgray" stroke-width="0.5"/>
<line x1="0" y1="310" x2="1298.8809460246184" y2="310" stroke="lightgray" stroke-width="0.5"/>
<line x1="0" y1="315" x2="1298.8809460246184" y2="315" stroke="lightgray" stroke-width="0.5"/>
<line x1="0" y1="320" x2="1298.8809460246184" y2="320" stroke="lightgray" stroke-width="0.5"/>
<line x1="0" y1="325" x2="1298.8809460246184" y2="325" stroke="lightgray" stroke-width="0.5"/>
<line x1="0" y1="330" x2="1298.8809460246184" y2="330" stroke="lightgray" stroke-width="0.5"/>
<line x1="0" y1="335" x2="1298.8809460246184" y2="335" stroke="lightgray" stroke-width="0.5"/>
<line x1="0" y1="340" x2="1298.8809460246184" y2="340" stroke="lightgray" stroke-width="0.5"/>
<line x1="0" y1="345" x2="1298.8809460246184" y2="345" stroke="lightgray" stroke-width="0.5"/>
<line x1="0" y1="350" x2="1298.8809460246184" y2="350" stroke="lightgray" stroke-width="0.5"/>
<line x1="0" y1="355" x2="1298.8809460246184" y2="355" stroke="lightgray" stroke-width="0.5"/>
<line x1="0" y1="360" x2="1298.8809460246184" y2="360" stroke="lightgray" stroke-width="0.5"/>
<line x1="0" y1="365" x2="1298.8809460246184" y2="365" stroke="lightgray" stroke-width="0.5"/>
<line x1="0" y1="370" x2="1298.8809460246184" y2="370" stroke="lightgray" stroke-width="0.5"/>
<line x1="0" y1="375" x2="1298.8809460246184" y2="375" stroke="lightgray" stroke-width="0.5"/>
<line x1="0" y1="380" x2="1298.8809460246184" y2="380" stroke="lightgray" stroke-width="0.5"/>
<line x1="0" y1="385" x2="1298.8809460246184" y2="385" stroke="lightgray" stroke-width="0.5"/>
<line x1="0" y1="390" x2="1298.8809460246184" y2="390" stroke="lightgray" stroke-width="0.5"/>
<line x1="0" y1="395" x2="1298.8809460246184" y2="395" stroke="lightgray" stroke-width="0.5"/>
<line x1="0" y1="400" x2="1298.8809460246184" y2="400" stroke="lightgray" stroke-width="0.5"/>
<line x1="0" y1="405" x2="1298.8809460246184" y2="405" stroke="lightgray" stroke-width="0.5"/>
<line x1="0" y1="410" x2="1298.8809460246184" y2="410" stroke="lightgray" stroke-width="0.5"/>
<line x1="0" y1="415" x2="1298.8809460246184" y2="415" stroke="lightgray" stroke-width="0.5"/>
<line x1="0" y1="420" x2="1298.8809460246184" y2="420" stroke="lightgray" stroke-width="0.5"/>
<line x1="0" y1="425" x2="1298.8809460246184" y2="425" stroke="lightgray" stroke-width="0.5"/>
<line x1="0" y1="430" x2="1298.8809460246184" y2="430" stroke="lightgray" stroke-width="0.5"/>
<line x1="0" y1="435" x2="1298.8809460246184" y2="435" stroke="lightgray" stroke-width="0.5"/>
<line x1="0" y1="440" x2="1298.8809460246184" y2="440" stroke="lightgray" stroke-width="0.5"/>
<line x1="0" y1="445" x2="1298.8809460246184" y2="445" stroke="lightgray" stroke-width="0.5"/>
<line x1="0" y1="450" x2="1298.8809460246184" y2="450" stroke="lightgray" stroke-width="0.5"/>
<line x1="0" y1="455" x2="1298.8809460246184" y2="455" stroke="lightgray" stroke-width="0.5"/>
<line x1="0" y1="460" x2="1298.8809460246184" y2="460" stroke="lightgray" stroke-width="0.5"/>
<line x1="0" y1="465" x2="1298.8809460246184" y2="465" stroke="lightgray" stroke-width="0.5"/>
<line x1="0" y1="470" x2="1298.8809460246184" y2="470" stroke="lightgray" stroke-width="0.5"/>
<line x1="0" y1="475" x2="1298.8809460246184" y2="475" stroke="lightgray" stroke-width="0.5"/>
<line x1="0" y1="480" x2="1298.8809460246184" y2="480" stroke="lightgray" stroke-width="0.5"/>
<line x1="0" y1="485" x2="1298.8809460246184" y2="485" stroke="lightgray" stroke-width="0.5"/>
<line x1="0" y1="490" x2="1298.8809460246184" y2="490" stroke="lightgray" stroke-width="0.5"/>
<line x1="0" y1="495" x2="1298.8809460246184" y2="495" stroke="lightgray" stroke-width="0.5"/>
<line x1="0" y1="500" x2="1298.8809460246184" y2="500" stroke="lightgray" stroke-width="0.5"/>
<line x1="0" y1="505" x2="1298.8809460246184" y2="505" stroke="lightgray" stroke-width="0.5"/>
<line x1="0" y1="510" x2="1298.8809460246184" y2="510" stroke="lightgray" stroke-width="0.5"/>
<line x1="0" y1="515" x2="1298.8809460246184" y2="515" stroke="lightgray" stroke-width="0.5"/>
<line x1="0" y1="520" x2="1298.8809460246184" y2="520" stroke="lightgray" stroke-width="0.5"/>
<line x1="0" y1="525" x2="1298.8809460246184" y2="525" stroke="lightgray" stroke-width="0.5"/>
<line x1="0" y1="530" x2="1298.8809460246184" y2="530" stroke="lightgray" stroke-width="0.5"/>
<line x1="0" y1="535" x2="1298.8809460246184" y2="535" stroke="lightgray" stroke-width="0.5"/>
<line x1="0" y1="540" x2="1298.8809460246184" y2="540" stroke="lightgray" stroke-width="0.5"/>
<line x1="0" y1="545" x2="1298.8809460246184" y2="545" stroke="lightgray" stroke-width="0.5"/>
<line x1="0" y1="550" x2="1298.8809460246184" y2="550" stroke="lightgray" stroke-width="0.5"/>
<line x1="0" y1="555" x2="1298.8809460246184" y2="555" stroke="lightgray" stroke-width="0.5"/>
<line x1="0" y1="560" x2="1298.8809460246184" y2="560" stroke="lightgray" stroke-width="0.5"/>
<line x1="0" y1="565" x2="1298.8809460246184" y2="565" stroke="lightgray" stroke-width="0.5"/>
<line x1="0" y1="570" x2="1298.8809460246184" y2="570" stroke="lightgray" stroke-width="0.5"/>
<line x1="0" y1="575" x2="1298.8809460246184" y2="575" stroke="lightgray" stroke-width="0.5"/>
<line x1="0" y1="580" x2="1298.8809460246184" y2="580" stroke="lightgray" stroke-width="0.5"/>
<line x1="0" y1="585" x2="1298.8809460246184" y2="585" stroke="lightgray" stroke-width="0.5"/>
<line x1="0" y1="590" x2="1298.8809460246184" y2="590" stroke="lightgray" stroke-width="0.5"/>
<line x1="0" y1="595" x2="1298.8809460246184" y2="595" stroke="lightgray" stroke-width="0.5"/>
<line x1="0" y1="600" x2="1298.8809460246184" y2="600" stroke="lightgray" stroke-width="0.5"/>
<line x1="0" y1="605" x2="1298.8809460246184" y2="605" stroke="lightgray" stroke-width="0.5"/>
<line x1="0" y1="610" x2="1298.8809460246184" y2="610" stroke="lightgray" stroke-width="0.5"/>
<line x1="0" y1="615" x2="1298.8809460246184" y2="615" stroke="lightgray" stroke-width="0.5"/>
<line x1="0" y1="620" x2="1298.8809460246184" y2="620" stroke="lightgray" stroke-width="0.5"/>
<line x1="0" y1="625" x2="1298.8809460246184" y2="625" stroke="lightgray" stroke-width="0.5"/>
<line x1="0" y1="630" x2="1298.8809460246184" y2="630" stroke="lightgray" stroke-width="0.5"/>
<line x1="0" y1="635" x2="1298.8809460246184" y2="635" stroke="lightgray" stroke-width="0.5"/>
<line x1="0" y1="640" x2="1298.8809460246184" y2="640" stroke="lightgray" stroke-width="0.5"/>
<line x1="0" y1="645" x2="1298.8809460246184" y2="645" stroke="lightgray" stroke-width="0.5"/>
<line x1="0" y1="650" x2="1298.8809460246184" y2="650" stroke="lightgray" stroke-width="0.5"/>
<line x1="0" y1="655" x2="1298.8809460246184" y2="655" stroke="lightgray" stroke-width="0.5"/>
<line x1="0" y1="660" x2="1298.8809460246184" y2="660" stroke="lightgray" stroke-width="0.5"/>
<line x1="0" y1="665" x2="1298.8809460246184" y2="665" stroke="lightgray" stroke-width="0.5"/>
<line x1="0" y1="670" x2="1298.8809460246184" y2="670" stroke="lightgray" stroke-width="0.5"/>
<line x1="0" y1="675" x2="1298.8809460246184" y2="675" stroke="lightgray" stroke-width="0.5"/>
<line x1="0" y1="680" x2="1298.8809460246184" y2="680" stroke="lightgray" stroke-width="0.5"/>
<line x1="0" y1="685" x2="1298.8809460246184" y2="685" stroke="lightgray" stroke-width="0.5"/>
<line x1="0" y1="690" x2="1298.8809460246184" y2="690" stroke="lightgray" stroke-width="0.5"/>
<line x1="0" y1="695" x2="1298.8809460246184" y2="695" stroke="lightgray" stroke-width="0.5"/>
<line x1="0" y1="700" x2="1298.8809460246184" y2="700" stroke="lightgray" stroke-width="0.5"/>
<line x1="0" y1="705" x2="1298.8809460246184" y2="705" stroke="lightgray" stroke-width="0.5"/>
<line x1="0" y1="710" x2="1298.8809460246184" y2="710" stroke="lightgray" stroke-width="0.5"/>
<line x1="0" y1="715" x2="1298.8809460246184" y2="715" stroke="lightgray" stroke-width="0.5"/>
<line x1="0" y1="720" x2="1298.8809460246184" y2="720" stroke="lightgray" stroke-width="0.5"/>
<line x1="0" y1="725" x2="1298.8809460246184" y2="725" stroke="lightgray" stroke-width="0.5"/>
<line x1="0" y1="730" x2="1298.8809460246184" y2="730" stroke="lightgray" stroke-width="0.5"/>
<line x1="0" y1="735" x2="1298.8809460246184" y2="735" stroke="lightgray" stroke-width="0.5"/>
<line x1="0" y1="740" x2="1298.8809460246184" y2="740" stroke="lightgray" stroke-width="0.5"/>
<line x1="0" y1="745" x2="1298.8809460246184" y2="745" stroke="lightgray" stroke-width="0.5"/>
<line x1="0" y1="750" x2="1298.8809460246184" y2="750" stroke="lightgray" stroke-width="0.5"/>
<line x1="0" y1="755" x2="1298.8809460246184" y2="755" stroke="lightgray" stroke-width="0.5"/>
<line x1="0" y1="760" x2="1298.8809460246184" y2="760" stroke="lightgray" stroke-width="0.5"/>
<line x1="0" y1="765" x2="1298.8809460246184" y2="765" stroke="lightgray" stroke-width="0.5"/>
<line x1="0" y1="770" x2="1298.8809460246184" y2="770" stroke="lightgray" stroke-width="0.5"/>
<line x1="0" y1="775" x2="1298.8809460246184" y2="775" stroke="lightgray" stroke-width="0.5"/>
<line x1="0" y1="780" x2="1298.8809460246184" y2="780" stroke="lightgray" stroke-width="0.5"/>
<line x1="0" y1="785" x2="1298.8809460246184" y2="785" stroke="lightgray" stroke-width="0.5"/>
<line x1="0" y1="790" x2="1298.8809460246184" y2="790" stroke="lightgray" stroke-width="0.5"/>
<line x1="0" y1="795" x2="1298.8809460246184" y2="795" stroke="lightgray" stroke-width="0.5"/>
<line x1="0" y1="800" x2="1298.8809460246184" y2="800" stroke="lightgray" stroke-width="0.5"/>
<line x1="0" y1="805" x2="1298.8809460246184" y2="805" stroke="lightgray" stroke-width="0.5"/>
<line x1="0" y1="810" x2="1298.8809460246184" y2="810" stroke="lightgray" stroke-width="0.5"/>
<line x1="0" y1="815" x2="1298.8809460246184" y2="815" stroke="lightgray" stroke-width="0.5"/>
<line x1="0" y1="820" x2="1298.8809460246184" y2="820" stroke="lightgray" stroke-width="0.5"/>
<line x1="0" y1="825" x2="1298.8809460246184" y2="825" stroke="lightgray" stroke-width="0.5"/>
<line x1="0" y1="830" x2="1298.8809460246184" y2="830" stroke="lightgray" stroke-width="0.5"/>
<line x1="0" y1="835" x2="1298.8809460246184" y2="835" stroke="lightgray" stroke-width="0.5"/>
<line x1="0" y1="840" x2="1298.8809460246184" y2="840" stroke="lightgray" stroke-width="0.5"/>
<line x1="0" y1="845" x2="1298.8809460246184" y2="845" stroke="lightgray" stroke-width="0.5"/>
<line x1="0" y1="850" x2="1298.8809460246184" y2="850" stroke="lightgray" stroke-width="0.5"/>
<line x1="0" y1="855" x2="1298.8809460246184" y2="855" stroke="lightgray" stroke-width="0.5"/>
<line x1="0" y1="860" x2="1298.8809460246184" y2="860" stroke="lightgray" stroke-width="0.5"/>
<line x1="0" y1="865" x2="1298.8809460246184" y2="865" stroke="lightgray" stroke-width="0.5"/>
<line x1="0" y1="870" x2="1298.8809460246184" y2="870" stroke="lightgray" stroke-width="0.5"/>
<line x1="0" y1="875" x2="1298.8809460246184" y2="875" stroke="lightgray" stroke-width="0.5"/>
<line x1="0" y1="880" x2="1298.8809460246184" y2="880" stroke="lightgray" stroke-width="0.5"/>
<line x1="0" y1="885" x2="1298.8809460246184" y2="885" stroke="lightgray" stroke-width="0.5"/>
<line x1="0" y1="890" x2="1298.8809460246184" y2="890" stroke="lightgray" stroke-width="0.5"/>
<line x1="0" y1="895" x2="1298.8809460246184" y2="895" stroke="lightgray" stroke-width="0.5"/>
<line x1="0" y1="900" x2="1298.8809460246184" y2="900" stroke="lightgray" stroke-width="0.5"/>
<line x1="0" y1="905" x2="1298.8809460246184" y2="905" stroke="lightgray" stroke-width="0.5"/>
<line x1="0" y1="910" x2="1298.8809460246184" y2="910" stroke="lightgray" stroke-width="0.5"/>
<line x1="0" y1="915" x2="1298.8809460246184" y2="915" stroke="lightgray" stroke-width="0.5"/>
<line x1="0" y1="920" x2="1298.8809460246184" y2="920" stroke="lightgray" stroke-width="0.5"/>
<line x1="0" y1="925" x2="1298.8809460246184" y2="925" stroke="lightgray" stroke-width="0.5"/>
<line x1="0" y1="930" x2="1298.8809460246184" y2="930" stroke="lightgray" stroke-width="0.5"/>
<line x1="0" y1="935" x2="1298.8809460246184" y2="935" stroke="lightgray" stroke-width="0.5"/>
<line x1="0" y1="940" x2="1298.8809460246184" y2="940" stroke="lightgray" stroke-width="0.5"/>
<line x1="0" y1="945" x2="1298.8809460246184" y2="945" stroke="lightgray" stroke-width="0.5"/>
<line x1="0" y1="950" x2="1298.8809460246184" y2="950" stroke="lightgray" stroke-width="0.5"/>
<line x1="0" y1="955" x2="1298.8809460246184" y2="955" stroke="lightgray" stroke-width="0.5"/>
<line x1="0" y1="960" x2="1298.8809460246184" y2="960" stroke="lightgray" stroke-width="0.5"/>
<line x1="0" y1="965" x2="1298.8809460246184" y2="965" stroke="lightgray" stroke-width="0.5"/>
<line x1="0" y1="970" x2="1298.8809460246184" y2="970" stroke="lightgray" stroke-width="0.5"/>
<line x1="0" y1="975" x2="1298.8809460246184" y2="975" stroke="lightgray" stroke-width="0.5"/>
<line x1="0" y1="980" x2="1298.8809460246184" y2="980" stroke="lightgray" stroke-width="0.5"/>
<line x1="0" y1="985" x2="1298.8809460246184" y2="985" stroke="lightgray" stroke-width="0.5"/>
<line x1="0" y1="990" x2="1298.8809460246184" y2="990" stroke="lightgray" stroke-width="0.5"/>
<line x1="0" y1="995" x2="1298.8809460246184" y2="995" stroke="lightgray" stroke-width="0.5"/>
<line x1="0" y1="1000" x2="1298.8809460246184" y2="1000" stroke="lightgray" stroke-width="0.5"/>
<line x1="0" y1="1005" x2="1298.8809460246184" y2="1005" stroke="lightgray" stroke-width="0.5"/>
<line x1="0" y1="1010" x2="1298.8809460246184" y2="1010" stroke="lightgray" stroke-width="0.5"/>
<line x1="0" y1="1015" x2="1298.8809460246184" y2="1015" stroke="lightgray" stroke-width="0.5"/>
<line x1="0" y1="1020" x2="1298.8809460246184" y2="1020" stroke="lightgray" stroke-width="0.5"/>
<line x1="0" y1="1025" x2="1298.8809460246184" y2="1025" stroke="lightgray" stroke-width="0.5"/>
<line x1="0" y1="1030" x2="1298.8809460246184" y2="1030" stroke="lightgray" stroke-width="0.5"/>
<line x1="0" y1="1035" x2="1298.8809460246184" y2="1035" stroke="lightgray" stroke-width="0.5"/>
<line x1="0" y1="1040" x2="1298.8809460246184" y2="1040" stroke="lightgray" stroke-width="0.5"/>
<line x1="0" y1="1045" x2="1298.8809460246184" y2="1045" stroke="lightgray" stroke-width="0.5"/>
<line x1="0" y1="1050" x2="1298.8809460246184" y2="1050" stroke="lightgray" stroke-width="0.5"/>
<line x1="0" y1="1055" x2="1298.8809460246184" y2="1055" stroke="lightgray" stroke-width="0.5"/>
<line x1="0" y1="1060" x2="1298.8809460246184" y2="1060" stroke="lightgray" stroke-width="0.5"/>
<line x1="0" y1="1065" x2="1298.8809460246184" y2="1065" stroke="lightgray" stroke-width="0.5"/>
<line x1="0" y1="1070" x2="1298.8809460246184" y2="1070" stroke="lightgray" stroke-width="0.5"/>
<line x1="0" y1="1075" x2="1298.8809460246184" y2="1075" stroke="lightgray" stroke-width="0.5"/>
<line x1="0" y1="1080" x2="1298.8809460246184" y2="1080" stroke="lightgray" stroke-width="0.5"/>
<line x1="0" y1="1085" x2="1298.8809460246184" y2="1085" stroke="lightgray" stroke-width="0.5"/>
<line x1="0" y1="1090" x2="1298.8809460246184" y2="1090" stroke="lightgray" stroke-width="0.5"/>
<line x1="0" y1="1095" x2="1298.8809460246184" y2="1095" stroke="lightgray" stroke-width="0.5"/>
<line x1="0" y1="1100" x2="1298.8809460246184" y2="1100" stroke="lightgray" stroke-width="0.5"/>
<line x1="0" y1="1105" x2="1298.8809460246184" y2="1105" stroke="lightgray" stroke-width="0.5"/>
<line x1="0" y1="1110" x2="1298.8809460246184" y2="1110" stroke="lightgray" stroke-width="0.5"/>
<line x1="0" y1="1115" x2="1298.8809460246184" y2="1115" stroke="lightgray" stroke-width="0.5"/>
<line x1="0" y1="1120" x2="1298.8809460246184" y2="1120" stroke="lightgray" stroke-width="0.5"/>
<line x1="0" y1="1125" x2="1298.8809460246184" y2="1125" stroke="lightgray" stroke-width="0.5"/>
<line x1="0" y1="1130" x2="1298.8809460246184" y2="1130" stroke="lightgray" stroke-width="0.5"/>
<line x1="0" y1="1135" x2="1298.8809460246184" y2="1135" stroke="lightgray" stroke-width="0.5"/>
<line x1="0" y1="1140" x2="1298.8809460246184" y2="1140" stroke="lightgray" stroke-width="0.5"/>
<line x1="0" y1="1145" x2="1298.8809460246184" y2="1145" stroke="lightgray" stroke-width="0.5"/>
<line x1="0" y1="1150" x2="1298.8809460246184" y2="1150" stroke="lightgray" stroke-width="0.5"/>
<line x1="0" y1="1155" x2="1298.8809460246184" y2="1155" stroke="lightgray" stroke-width="0.5"/>
<line x1="0" y1="1160" x2="1298.8809460246184" y2="1160" stroke="lightgray" stroke-width="0.5"/>
<line x1="0" y1="1165" x2="1298.8809460246184" y2="1165" stroke="lightgray" stroke-width="0.5"/>
<line x1="0" y1="1170" x2="1298.8809460246184" y2="1170" stroke="lightgray" stroke-width="0.5"/>
<line x1="0" y1="1175" x2="1298.8809460246184" y2="1175" stroke="lightgray" stroke-width="0.5"/>
<line x1="0" y1="1180" x2="1298.8809460246184" y2="1180" stroke="lightgray" stroke-width="0.5"/>
<line x1="0" y1="1185" x2="1298.8809460246184" y2="1185" stroke="lightgray" stroke-width="0.5"/>
<line x1="0" y1="1190" x2="1298.8809460246184" y2="1190" stroke="lightgray" stroke-width="0.5"/>
<line x1="0" y1="1195" x2="1298.8809460246184" y2="1195" stroke="lightgray" stroke-width="0.5"/>
<line x1="0" y1="1200" x2="1298.8809460246184" y2="1200" stroke="lightgray" stroke-width="0.5"/>
<line x1="0" y1="1205" x2="1298.8809460246184" y2="1205" stroke="lightgray" stroke-width="0.5"/>
<line x1="0" y1="1210" x2="1298.8809460246184" y2="1210" stroke="lightgray" stroke-width="0.5"/>
<line x1="0" y1="1215" x2="1298.8809460246184" y2="1215" stroke="lightgray" stroke-width="0.5"/>
<line x1="0" y1="1220" x2="1298.8809460246184" y2="1220" stroke="lightgray" stroke-width="0.5"/>
<line x1="0" y1="1225" x2="1298.8809460246184" y2="1225" stroke="lightgray" stroke-width="0.5"/>
<line x1="0" y1="1230" x2="1298.8809460246184" y2="1230" stroke="lightgray" stroke-width="0.5"/>
<line x1="0" y1="1235" x2="1298.8809460246184" y2="1235" stroke="lightgray" stroke-width="0.5"/>
<line x1="0" y1="1240" x2="1298.8809460246184" y2="1240" stroke="lightgray" stroke-width="0.5"/>
<line x1="0" y1="1245" x2="1298.8809460246184" y2="1245" stroke="lightgray" stroke-width="0.5"/>
<line x1="0" y1="1250" x2="1298.8809460246184" y2="1250" stroke="lightgray" stroke-width="0.5"/>
<line x1="0" y1="1255" x2="1298.8809460246184" y2="1255" stroke="lightgray" stroke-width="0.5"/>
<line x1="0" y1="1260" x2="1298.8809460246184" y2="1260" stroke="lightgray" stroke-width="0.5"/>
<line x1="0" y1="1265" x2="1298.8809460246184" y2="1265" stroke="lightgray" stroke-width="0.5"/>
<line x1="0" y1="1270" x2="1298.8809460246184" y2="1270" stroke="lightgray" stroke-width="0.5"/>
<line x1="0" y1="1275" x2="1298.8809460246184" y2="1275" stroke="lightgray" stroke-width="0.5"/>
<line x1="0" y1="1280" x2="1298.8809460246184" y2="1280" stroke="lightgray" stroke-width="0.5"/>
<line x1="0" y1="1285" x2="1298.8809460246184" y2="1285" stroke="lightgray" stroke-width="0.5"/>
<line x1="0" y1="1290" x2="1298.8809460246184" y2="1290" stroke="lightgray" stroke-width="0.5"/>
<line x1="0" y1="1295" x2="1298.8809460246184" y2="1295" stroke="lightgray" stroke-width="0.5"/>
<line x1="0" y1="1300" x2="1298.8809460246184" y2="1300" stroke="lightgray" stroke-width="0.5"/>
<line x1="0" y1="1305" x2="1298.8809460246184" y2="1305" stroke="lightgray" stroke-width="0.5"/>
<line x1="0" y1="1310" x2="1298.8809460246184" y2="1310" stroke="lightgray" stroke-width="0.5"/>
<line x1="0" y1="1315" x2="1298.8809460246184" y2="1315" stroke="lightgray" stroke-width="0.5"/>
<line x1="0" y1="1320" x2="1298.8809460246184" y2="1320" stroke="lightgray" stroke-width="0.5"/>
<line x1="0" y1="1325" x2="1298.8809460246184" y2="1325" stroke="lightgray" stroke-width="0.5"/>
<line x1="0" y1="1330" x2="1298.8809460246184" y2="1330" stroke="lightgray" stroke-width="0.5"/>
<line x1="0" y1="1335" x2="1298.8809460246184" y2="1335" stroke="lightgray" stroke-width="0.5"/>
<line x1="0" y1="1340" x2="1298.8809460246184" y2="1340" stroke="lightgray" stroke-width="0.5"/>
<line x1="0" y1="1345" x2="1298.8809460246184" y2="1345" stroke="lightgray" stroke-width="0.5"/>
<line x1="0" y1="1350" x2="1298.8809460246184" y2="1350" stroke="lightgray" stroke-width="0.5"/>
<line x1="0" y1="1355" x2="1298.8809460246184" y2="1355" stroke="lightgray" stroke-width="0.5"/>
<line x1="0" y1="1360" x2="1298.8809460246184" y2="1360" stroke="lightgray" stroke-width="0.5"/>
<line x1="0" y1="1365" x2="1298.8809460246184" y2="1365" stroke="lightgray" stroke-width="0.5"/>
<line x1="0" y1="1370" x2="1298.8809460246184" y2="1370" stroke="lightgray" stroke-width="0.5"/>
<rect x="222.18276917047785" y="431.1514231101397" width="124.79999542236328" height="28" fill="lightblue" stroke="black"/>
<text x="284.5827668816595" y="450.1514231101397" font-family="Arial" font-size="12" text-anchor="middle">CAN_Powertrain</text>
<rect x="667.6663999890469" y="54.241950680970206" width="120" height="28" fill="lightblue" stroke="black"/>
<text x="727.6663999890469" y="73.2419506809702" font-family="Arial" font-size="12" text-anchor="middle">CAN_Chassis</text>
<rect x="857.7646781760349" y="173.59884497101822" width="120" height="28" fill="lightblue" stroke="black"/>
<text x="917.7646781760349" y="192.59884497101822" font-family="Arial" font-size="12" text-anchor="middle">CAN_Body</text>
<rect x="22.17187132959957" y="542.2366912702438" width="146.39999389648438" height="28" fill="lightblue" stroke="black"/>
<text x="95.37186827784176" y="561.2366912702438" font-family="Arial" font-size="12" text-anchor="middle">Ethernet_Backbone</text>
<rect x="661.489949029033" y="838.7746122633747" width="120" height="28" fill="lightblue" stroke="black"/>
<text x="721.489949029033" y="857.7746122633747" font-family="Arial" font-size="12" text-anchor="middle">Ethernet_ADAS</text>
<rect x="262.2044081602816" y="40" width="340" height="271" fill="lightblue" stroke="black"/>
<text x="432.2044081602816" y="180.5" font-family="Arial" font-size="12" text-anchor="middle">GatewayECU</text>
<rect x="165.84142362068502" y="671.5774217159502" width="412" height="223" fill="lightblue" stroke="black"/>
<text x="371.841423620685" y="788.0774217159502" font-family="Arial" font-size="12" text-anchor="middle">EngineECU</text>
<rect x="439.10002497020355" y="1098.8058022592713" width="376" height="178" fill="lightblue" stroke="black"/>
<text x="627.1000249702035" y="1192.8058022592713" font-family="Arial" font-size="12" text-anchor="middle">TransmissionECU</text>
<rect x="540.2581774578064" y="352.183096006748" width="388" height="271" fill="lightblue" stroke="black"/>
<text x="734.2581774578064" y="492.683096006748" font-family="Arial" font-size="12" text-anchor="middle">VehicleDynamicsECU</text>
<rect x="20" y="986.2677723346712" width="316" height="361" fill="lightblue" stroke="black"/>
<text x="178" y="1171.7677723346712" font-family="Arial" font-size="12" text-anchor="middle">ADASController</text>
<rect x="974.8809460246185" y="485.1130213830942" width="304" height="268" fill="lightblue" stroke="black"/>
<text x="1126.8809460246184" y="624.1130213830942" font-family="Arial" font-size="12" text-anchor="middle">ClusterECU</text>
<path d="M 260 55 L 240 55 L 240 60 L 240 65 L 240 70 L 240 75 L 240 80 L 240 85 L 240 90 L 240 95 L 240 100 L 240 105 L 240 110 L 240 115 L 240 120 L 240 125 L 240 130 L 240 135 L 240 140 L 240 145 L 240 150 L 240 155 L 240 160 L 240 165 L 240 170 L 240 175 L 240 180 L 240 185 L 240 190 L 240 195 L 240 200 L 240 205 L 240 210 L 240 215 L 240 220 L 240 225 L 240 230 L 240 235 L 240 240 L 240 245 L 240 250 L 240 255 L 240 260 L 240 265 L 240 270 L 240 275 L 240 280 L 240 285 L 240 290 L 240 295 L 240 300 L 240 305 L 240 310 L 240 315 L 240 320 L 240 325 L 240 330 L 245 330 L 250 330 L 255 330 L 260 330 L 265 330 L 270 330 L 275 330 L 280 330 L 285 330 L 290 330 L 295 330 L 300 330 L 305 330 L 310 330 L 315 330 L 320 330 L 325 330 L 330 330 L 335 330 L 340 330 L 345 330 L 350 330 L 355 330 L 360 330 L 365 330 L 370 330 L 370 335 L 370 340 L 370 345 L 370 350 L 370 355 L 370 360 L 370 365 L 370 370 L 370 375 L 370 380 L 370 385 L 370 390 L 370 395 L 370 400 L 370 405 L 370 410 L 370 415 L 370 420 L 370 425 L 370 430 L 370 435 L 370 440 L 370 445 L 345 445" stroke="black" stroke-width="2" fill="none"/>
<path d="M 260 55 L 240 55 L 240 50 L 240 45 L 240 40 L 240 35 L 240 30 L 240 25 L 240 20 L 245 20 L 250 20 L 255 20 L 260 20 L 265 20 L 270 20 L 275 20 L 280 20 L 285 20 L 290 20 L 295 20 L 300 20 L 305 20 L 310 20 L 315 20 L 320 20 L 325 20 L 330 20 L 335 20 L 340 20 L 345 20 L 350 20 L 355 20 L 360 20 L 365 20 L 370 20 L 375 20 L 380 20 L 385 20 L 390 20 L 395 20 L 400 20 L 405 20 L 410 20 L 415 20 L 420 20 L 425 20 L 430 20 L 435 20 L 440 20 L 445 20 L 450 20 L 455 20 L 460 20 L 465 20 L 470 20 L 475 20 L 480 20 L 485 20 L 490 20 L 495 20 L 500 20 L 505 20 L 510 20 L 515 20 L 520 20 L 525 20 L 530 20 L 535 20 L 540 20 L 545 20 L 550 20 L 555 20 L 560 20 L 565 20 L 570 20 L 575 20 L 580 20 L 585 20 L 590 20 L 595 20 L 600 20 L 605 20 L 610 20 L 615 20 L 620 20 L 625 20 L 630 20 L 635 20 L 640 20 L 645 20 L 645 25 L 645 30 L 645 35 L 645 40 L 645 45 L 645 50 L 645 55 L 645 60 L 645 65 L 645 70 L 670 70" stroke="black" stroke-width="2" fill="none"/>
<path d="M 260 55 L 240 55 L 240 50 L 240 45 L 240 40 L 240 35 L 240 30 L 240 25 L 240 20 L 245 20 L 250 20 L 255 20 L 260 20 L 265 20 L 270 20 L 275 20 L 280 20 L 285 20 L 290 20 L 295 20 L 300 20 L 305 20 L 310 20 L 315 20 L 320 20 L 325 20 L 330 20 L 335 20 L 340 20 L 345 20 L 350 20 L 355 20 L 360 20 L 365 20 L 370 20 L 375 20 L 380 20 L 385 20 L 390 20 L 395 20 L 400 20 L 405 20 L 410 20 L 415 20 L 420 20 L 425 20 L 430 20 L 435 20 L 440 20 L 445 20 L 450 20 L 455 20 L 460 20 L 465 20 L 470 20 L 475 20 L 480 20 L 485 20 L 490 20 L 495 20 L 500 20 L 505 20 L 510 20 L 515 20 L 520 20 L 525 20 L 530 20 L 535 20 L 540 20 L 545 20 L 550 20 L 555 20 L 560 20 L 565 20 L 570 20 L 575 20 L 580 20 L 585 20 L 590 20 L 595 20 L 600 20 L 605 20 L 610 20 L 615 20 L 620 20 L 625 20 L 630 20 L 635 20 L 640 20 L 645 20 L 650 20 L 655 20 L 660 20 L 665 20 L 670 20 L 675 20 L 680 20 L 685 20 L 690 20 L 695 20 L 700 20 L 705 20 L 710 20 L 715 20 L 720 20 L 725 20 L 730 20 L 735 20 L 740 20 L 745 20 L 750 20 L 755 20 L 760 20 L 765 20 L 770 20 L 775 20 L 780 20 L 785 20 L 790 20 L 795 20 L 800 20 L 805 20 L 810 20 L 815 20 L 820 20 L 825 20 L 830 20 L 835 20 L 835 25 L 835 30 L 835 35 L 835 40 L 835 45 L 835 50 L 835 55 L 835 60 L 835 65 L 835 70 L 835 75 L 835 80 L 835 85 L 835 90 L 835 95 L 835 100 L 835 105 L 835 110 L 835 115 L 835 120 L 835 125 L 835 130 L 835 135 L 835 140 L 835 145 L 835 150 L 835 155 L 835 160 L 835 165 L 835 170 L 835 175 L 835 180 L 835 185 L 835 190 L 860 190" stroke="black" stroke-width="2" fill="none"/>
<path d="M 260 55 L 240 55 L 235 55 L 230 55 L 225 55 L 220 55 L 215 55 L 210 55 L 205 55 L 200 55 L 195 55 L 190 55 L 190 60 L 190 65 L 190 70 L 190 75 L 190 80 L 190 85 L 190 90 L 190 95 L 190 100 L 190 105 L 190 110 L 190 115 L 190 120 L 190 125 L 190 130 L 190 135 L 190 140 L 190 145 L 190 150 L 190 155 L 190 160 L 190 165 L 190 170 L 190 175 L 190 180 L 190 185 L 190 190 L 190 195 L 190 200 L 190 205 L 190 210 L 190 215 L 190 220 L 190 225 L 190 230 L 190 235 L 190 240 L 190 245 L 190 250 L 190 255 L 190 260 L 190 265 L 190 270 L 190 275 L 190 280 L 190 285 L 190 290 L 190 295 L 190 300 L 190 305 L 190 310 L 190 315 L 190 320 L 190 325 L 190 330 L 190 335 L 190 340 L 190 345 L 190 350 L 190 355 L 190 360 L 190 365 L 190 370 L 190 375 L 190 380 L 190 385 L 190 390 L 190 395 L 190 400 L 190 405 L 190 410 L 190 415 L 190 420 L 190 425 L 190 430 L 190 435 L 190 440 L 190 445 L 190 450 L 190 455 L 190 460 L 190 465 L 190 470 L 190 475 L 190 480 L 190 485 L 190 490 L 190 495 L 190 500 L 190 505 L 190 510 L 190 515 L 190 520 L 190 525 L 190 530 L 190 535 L 190 540 L 190 545 L 190 550 L 190 555 L 170 555" stroke="black" stroke-width="2" fill="none"/>
<path d="M 165 685 L 145 685 L 145 680 L 145 675 L 145 670 L 145 665 L 145 660 L 145 655 L 145 650 L 150 650 L 155 650 L 160 650 L 165 650 L 170 650 L 175 650 L 180 650 L 185 650 L 190 650 L 195 650 L 200 650 L 205 650 L 210 650 L 215 650 L 220 650 L 225 650 L 230 650 L 235 650 L 240 650 L 245 650 L 250 650 L 255 650 L 260 650 L 265 650 L 270 650 L 275 650 L 280 650 L 285 650 L 290 650 L 295 650 L 300 650 L 305 650 L 310 650 L 315 650 L 320 650 L 325 650 L 330 650 L 335 650 L 340 650 L 345 650 L 350 650 L 355 650 L 360 650 L 365 650 L 370 650 L 370 645 L 370 640 L 370 635 L 370 630 L 370 625 L 370 620 L 370 615 L 370 610 L 370 605 L 370 600 L 370 595 L 370 590 L 370 585 L 370 580 L 370 575 L 370 570 L 370 565 L 370 560 L 370 555 L 370 550 L 370 545 L 370 540 L 370 535 L 370 530 L 370 525 L 370 520 L 370 515 L 370 510 L 370 505 L 370 500 L 370 495 L 370 490 L 370 485 L 370 480 L 370 475 L 370 470 L 370 465 L 370 460 L 370 455 L 370 450 L 370 445 L 345 445" stroke="black" stroke-width="2" fill="none"/>
<path d="M 440 1115 L 415 1115 L 415 1110 L 415 1105 L 415 1100 L 415 1095 L 415 1090 L 415 1085 L 415 1080 L 415 1075 L 420 1075 L 425 1075 L 430 1075 L 435 1075 L 440 1075 L 445 1075 L 450 1075 L 455 1075 L 460 1075 L 465 1075 L 470 1075 L 475 1075 L 480 1075 L 485 1075 L 490 1075 L 495 1075 L 500 1075 L 505 1075 L 510 1075 L 515 1075 L 520 1075 L 525 1075 L 530 1075 L 535 1075 L 540 1075 L 545 1075 L 550 1075 L 555 1075 L 560 1075 L 565 1075 L 570 1075 L 575 1075 L 580 1075 L 585 1075 L 590 1075 L 595 1075 L 600 1075 L 600 1070 L 600 1065 L 600 1060 L 600 1055 L 600 1050 L 600 1045 L 600 1040 L 600 1035 L 600 1030 L 600 1025 L 600 1020 L 600 1015 L 600 1010 L 600 1005 L 600 1000 L 600 995 L 600 990 L 600 985 L 600 980 L 600 975 L 600 970 L 600 965 L 600 960 L 600 955 L 600 950 L 600 945 L 600 940 L 600 935 L 600 930 L 600 925 L 600 920 L 600 915 L 600 910 L 600 905 L 600 900 L 600 895 L 600 890 L 600 885 L 600 880 L 600 875 L 600 870 L 600 865 L 600 860 L 600 855 L 600 850 L 600 845 L 600 840 L 600 835 L 600 830 L 600 825 L 600 820 L 600 815 L 600 810 L 600 805 L 600 800 L 600 795 L 600 790 L 600 785 L 600 780 L 600 775 L 600 770 L 600 765 L 600 760 L 600 755 L 600 750 L 600 745 L 600 740 L 600 735 L 600 730 L 600 725 L 600 720 L 600 715 L 600 710 L 600 705 L 600 700 L 600 695 L 600 690 L 600 685 L 600 680 L 600 675 L 600 670 L 600 665 L 595 665 L 595 660 L 595 655 L 595 650 L 590 650 L 585 650 L 580 650 L 575 650 L 570 650 L 565 650 L 560 650 L 555 650 L 550 650 L 545 650 L 540 650 L 535 650 L 530 650 L 525 650 L 520 650 L 515 650 L 510 650 L 505 650 L 500 650 L 495 650 L 490 650 L 485 650 L 480 650 L 475 650 L 470 650 L 465 650 L 460 650 L 455 650 L 450 650 L 445 650 L 440 650 L 435 650 L 430 650 L 425 650 L 420 650 L 415 650 L 410 650 L 405 650 L 400 650 L 395 650 L 390 650 L 385 650 L 380 650 L 375 650 L 370 650 L 370 645 L 370 640 L 370 635 L 370 630 L 370 625 L 370 620 L 370 615 L 370 610 L 370 605 L 370 600 L 370 595 L 370 590 L 370 585 L 370 580 L 370 575 L 370 570 L 370 565 L 370 560 L 370 555 L 370 550 L 370 545 L 370 540 L 370 535 L 370 530 L 370 525 L 370 520 L 370 515 L 370 510 L 370 505 L 370 500 L 370 495 L 370 490 L 370 485 L 370 480 L 370 475 L 370 470 L 370 465 L 370 460 L 370 455 L 370 450 L 370 445 L 345 445" stroke="black" stroke-width="2" fill="none"/>
<path d="M 540 365 L 520 365 L 520 360 L 520 355 L 520 350 L 520 345 L 520 340 L 520 335 L 520 330 L 525 330 L 530 330 L 535 330 L 540 330 L 545 330 L 550 330 L 555 330 L 560 330 L 565 330 L 570 330 L 575 330 L 580 330 L 585 330 L 590 330 L 595 330 L 600 330 L 605 330 L 610 330 L 615 330 L 620 330 L 625 330 L 630 330 L 635 330 L 640 330 L 645 330 L 645 325 L 645 320 L 645 315 L 645 310 L 645 305 L 645 300 L 645 295 L 645 290 L 645 285 L 645 280 L 645 275 L 645 270 L 645 265 L 645 260 L 645 255 L 645 250 L 645 245 L 645 240 L 645 235 L 645 230 L 645 225 L 645 220 L 645 215 L 645 210 L 645 205 L 645 200 L 645 195 L 645 190 L 645 185 L 645 180 L 645 175 L 645 170 L 645 165 L 645 160 L 645 155 L 645 150 L 645 145 L 645 140 L 645 135 L 645 130 L 645 125 L 645 120 L 645 115 L 645 110 L 645 105 L 645 100 L 645 95 L 645 90 L 645 85 L 645 80 L 645 75 L 645 70 L 670 70" stroke="black" stroke-width="2" fill="none"/>
<path d="M 540 365 L 520 365 L 515 365 L 510 365 L 505 365 L 500 365 L 495 365 L 490 365 L 485 365 L 480 365 L 475 365 L 470 365 L 465 365 L 460 365 L 455 365 L 450 365 L 445 365 L 440 365 L 435 365 L 430 365 L 425 365 L 420 365 L 415 365 L 410 365 L 405 365 L 400 365 L 395 365 L 390 365 L 385 365 L 380 365 L 375 365 L 370 365 L 365 365 L 360 365 L 355 365 L 350 365 L 345 365 L 340 365 L 335 365 L 330 365 L 325 365 L 320 365 L 315 365 L 310 365 L 305 365 L 300 365 L 295 365 L 290 365 L 285 365 L 280 365 L 275 365 L 270 365 L 265 365 L 260 365 L 255 365 L 250 365 L 245 365 L 240 365 L 235 365 L 230 365 L 225 365 L 220 365 L 215 365 L 210 365 L 205 365 L 200 365 L 195 365 L 190 365 L 190 370 L 190 375 L 190 380 L 190 385 L 190 390 L 190 395 L 190 400 L 190 405 L 190 410 L 190 415 L 190 420 L 190 425 L 190 430 L 190 435 L 190 440 L 190 445 L 190 450 L 190 455 L 190 460 L 190 465 L 190 470 L 190 475 L 190 480 L 190 485 L 190 490 L 190 495 L 190 500 L 190 505 L 190 510 L 190 515 L 190 520 L 190 525 L 190 530 L 190 535 L 190 540 L 190 545 L 190 550 L 190 555 L 170 555" stroke="black" stroke-width="2" fill="none"/>
<path d="M 335 1000 L 360 1000 L 365 1000 L 370 1000 L 375 1000 L 380 1000 L 385 1000 L 390 1000 L 395 1000 L 400 1000 L 405 1000 L 410 1000 L 415 1000 L 420 1000 L 425 1000 L 430 1000 L 435 1000 L 440 1000 L 445 1000 L 450 1000 L 455 1000 L 460 1000 L 465 1000 L 470 1000 L 475 1000 L 480 1000 L 485 1000 L 490 1000 L 495 1000 L 500 1000 L 505 1000 L 510 1000 L 515 1000 L 520 1000 L 525 1000 L 530 1000 L 535 1000 L 540 1000 L 545 1000 L 550 1000 L 555 1000 L 560 1000 L 565 1000 L 570 1000 L 575 1000 L 580 1000 L 585 1000 L 590 1000 L 595 1000 L 600 1000 L 605 1000 L 610 1000 L 615 1000 L 620 1000 L 625 1000 L 630 1000 L 635 1000 L 640 1000 L 640 995 L 640 990 L 640 985 L 640 980 L 640 975 L 640 970 L 640 965 L 640 960 L 640 955 L 640 950 L 640 945 L 640 940 L 640 935 L 640 930 L 640 925 L 640 920 L 640 915 L 640 910 L 640 905 L 640 900 L 640 895 L 640 890 L 640 885 L 640 880 L 640 875 L 640 870 L 640 865 L 640 860 L 640 855 L 660 855" stroke="black" stroke-width="2" fill="none"/>
<path d="M 335 1000 L 360 1000 L 360 995 L 360 990 L 360 985 L 360 980 L 355 980 L 355 975 L 355 970 L 355 965 L 350 965 L 345 965 L 340 965 L 335 965 L 330 965 L 325 965 L 320 965 L 315 965 L 310 965 L 305 965 L 300 965 L 295 965 L 290 965 L 285 965 L 280 965 L 275 965 L 270 965 L 265 965 L 260 965 L 255 965 L 250 965 L 245 965 L 240 965 L 235 965 L 230 965 L 225 965 L 220 965 L 215 965 L 210 965 L 205 965 L 200 965 L 195 965 L 190 965 L 185 965 L 180 965 L 175 965 L 170 965 L 165 965 L 160 965 L 155 965 L 150 965 L 145 965 L 145 960 L 145 955 L 145 950 L 145 945 L 145 940 L 145 935 L 145 930 L 145 925 L 145 920 L 145 915 L 145 910 L 145 905 L 145 900 L 145 895 L 145 890 L 145 885 L 145 880 L 145 875 L 145 870 L 145 865 L 145 860 L 145 855 L 145 850 L 145 845 L 145 840 L 145 835 L 145 830 L 145 825 L 145 820 L 145 815 L 145 810 L 145 805 L 145 800 L 145 795 L 145 790 L 145 785 L 145 780 L 145 775 L 145 770 L 145 765 L 145 760 L 145 755 L 145 750 L 145 745 L 145 740 L 145 735 L 145 730 L 145 725 L 145 720 L 145 715 L 145 710 L 145 705 L 145 700 L 145 695 L 145 690 L 145 685 L 145 680 L 145 675 L 145 670 L 145 665 L 145 660 L 145 655 L 145 650 L 150 650 L 155 650 L 160 650 L 165 650 L 170 650 L 175 650 L 180 650 L 185 650 L 190 650 L 190 645 L 190 640 L 190 635 L 190 630 L 190 625 L 190 620 L 190 615 L 190 610 L 190 605 L 190 600 L 190 595 L 190 590 L 190 585 L 190 580 L 190 575 L 190 570 L 190 565 L 190 560 L 190 555 L 170 555" stroke="black" stroke-width="2" fill="none"/>
<path d="M 975 500 L 950 500 L 950 495 L 950 490 L 950 485 L 950 480 L 950 475 L 950 470 L 950 465 L 950 460 L 950 455 L 950 450 L 950 445 L 950 440 L 950 435 L 950 430 L 950 425 L 950 420 L 950 415 L 950 410 L 950 405 L 950 400 L 950 395 L 950 390 L 950 385 L 950 380 L 950 375 L 950 370 L 950 365 L 950 360 L 950 355 L 950 350 L 950 345 L 945 345 L 945 340 L 945 335 L 945 330 L 940 330 L 935 330 L 930 330 L 925 330 L 920 330 L 915 330 L 910 330 L 905 330 L 900 330 L 895 330 L 890 330 L 885 330 L 880 330 L 875 330 L 870 330 L 865 330 L 860 330 L 855 330 L 850 330 L 845 330 L 840 330 L 835 330 L 835 325 L 835 320 L 835 315 L 835 310 L 835 305 L 835 300 L 835 295 L 835 290 L 835 285 L 835 280 L 835 275 L 835 270 L 835 265 L 835 260 L 835 255 L 835 250 L 835 245 L 835 240 L 835 235 L 835 230 L 835 225 L 835 220 L 835 215 L 835 210 L 835 205 L 835 200 L 835 195 L 835 190 L 860 190" stroke="black" stroke-width="2" fill="none"/>
<path d="M 975 500 L 950 500 L 945 500 L 945 505 L 945 510 L 945 515 L 945 520 L 945 525 L 945 530 L 945 535 L 945 540 L 945 545 L 945 550 L 945 555 L 945 560 L 945 565 L 945 570 L 945 575 L 945 580 L 945 585 L 945 590 L 945 595 L 945 600 L 945 605 L 945 610 L 945 615 L 945 620 L 945 625 L 945 630 L 945 635 L 945 640 L 940 640 L 935 640 L 930 640 L 925 640 L 920 640 L 915 640 L 910 640 L 905 640 L 900 640 L 895 640 L 890 640 L 885 640 L 880 640 L 875 640 L 870 640 L 865 640 L 860 640 L 855 640 L 850 640 L 845 640 L 840 640 L 835 640 L 830 640 L 825 640 L 820 640 L 815 640 L 810 640 L 805 640 L 800 640 L 795 640 L 790 640 L 785 640 L 780 640 L 775 640 L 770 640 L 765 640 L 760 640 L 755 640 L 750 640 L 745 640 L 740 640 L 735 640 L 730 640 L 725 640 L 720 640 L 715 640 L 710 640 L 705 640 L 700 640 L 695 640 L 690 640 L 685 640 L 680 640 L 675 640 L 670 640 L 665 640 L 660 640 L 655 640 L 650 640 L 645 640 L 640 640 L 635 640 L 630 640 L 625 640 L 620 640 L 615 640 L 610 640 L 605 640 L 600 640 L 595 640 L 590 640 L 585 640 L 580 640 L 575 640 L 570 640 L 565 640 L 560 640 L 555 640 L 550 640 L 545 640 L 540 640 L 535 640 L 530 640 L 525 640 L 520 640 L 515 640 L 510 640 L 505 640 L 500 640 L 495 640 L 490 640 L 485 640 L 480 640 L 475 640 L 470 640 L 465 640 L 460 640 L 455 640 L 450 640 L 445 640 L 440 640 L 435 640 L 430 640 L 425 640 L 420 640 L 415 640 L 410 640 L 405 640 L 400 640 L 395 640 L 390 640 L 385 640 L 380 640 L 375 640 L 370 640 L 365 640 L 360 640 L 355 640 L 350 640 L 345 640 L 340 640 L 335 640 L 330 640 L 325 640 L 320 640 L 315 640 L 310 640 L 305 640 L 300 640 L 295 640 L 290 640 L 285 640 L 280 640 L 275 640 L 270 640 L 265 640 L 260 640 L 255 640 L 250 640 L 245 640 L 240 640 L 235 640 L 230 640 L 225 640 L 220 640 L 215 640 L 210 640 L 205 640 L 200 640 L 195 640 L 190 640 L 190 635 L 190 630 L 190 625 L 190 620 L 190 615 L 190 610 L 190 605 L 190 600 L 190 595 L 190 590 L 190 585 L 190 580 L 190 575 L 190 570 L 190 565 L 190 560 L 190 555 L 170 555" stroke="black" stroke-width="2" fill="none"/>
<rect x="217.18276917047785" y="440.1514231101397" width="10" height="10" fill="lightblue" stroke="black"/>
<rect x="341.98276459284114" y="440.1514231101397" width="10" height="10" fill="lightcoral" stroke="black"/>
<rect x="662.6663999890469" y="63.241950680970206" width="10" height="10" fill="lightblue" stroke="black"/>
<rect x="782.6663999890469" y="63.241950680970206" width="10" height="10" fill="lightcoral" stroke="black"/>
<rect x="852.7646781760349" y="182.59884497101822" width="10" height="10" fill="lightblue" stroke="black"/>
<rect x="972.7646781760349" y="182.59884497101822" width="10" height="10" fill="lightcoral" stroke="black"/>
<rect x="17.17187132959957" y="551.2366912702438" width="10" height="10" fill="lightblue" stroke="black"/>
<rect x="163.57186522608396" y="551.2366912702438" width="10" height="10" fill="lightcoral" stroke="black"/>
<rect x="656.489949029033" y="847.7746122633747" width="10" height="10" fill="lightblue" stroke="black"/>
<rect x="776.489949029033" y="847.7746122633747" width="10" height="10" fill="lightcoral" stroke="black"/>
<rect x="257.2044081602816" y="49" width="10" height="10" fill="lightblue" stroke="black"/>
<rect x="597.2044081602817" y="49" width="10" height="10" fill="lightcoral" stroke="black"/>
<rect x="160.84142362068502" y="680.5774217159502" width="10" height="10" fill="lightblue" stroke="black"/>
<rect x="572.841423620685" y="680.5774217159502" width="10" height="10" fill="lightcoral" stroke="black"/>
<rect x="434.10002497020355" y="1107.8058022592713" width="10" height="10" fill="lightblue" stroke="black"/>
<rect x="810.1000249702035" y="1107.8058022592713" width="10" height="10" fill="lightcoral" stroke="black"/>
<rect x="535.2581774578064" y="361.183096006748" width="10" height="10" fill="lightblue" stroke="black"/>
<rect x="923.2581774578064" y="361.183096006748" width="10" height="10" fill="lightcoral" stroke="black"/>
<rect x="15" y="995.2677723346712" width="10" height="10" fill="lightblue" stroke="black"/>
<rect x="331" y="995.2677723346712" width="10" height="10" fill="lightcoral" stroke="black"/>
<rect x="969.8809460246185" y="494.1130213830942" width="10" height="10" fill="lightblue" stroke="black"/>
<rect x="1273.8809460246184" y="494.1130213830942" width="10" height="10" fill="lightcoral" stroke="black"/>
</svg>